<svg width="20" height="20" viewBox="0 0 20 20" fill="none" xmlns="http://www.w3.org/2000/svg">
<path fill-rule="evenodd" clip-rule="evenodd" d="M1.04199 10.0013C1.04199 14.9489 5.05278 18.9596 10.0003 18.9596C14.9479 18.9596 18.9587 14.9489 18.9587 10.0013C18.9587 5.05375 14.9479 1.04297 10.0003 1.04297C5.05278 1.04297 1.04199 5.05375 1.04199 10.0013ZM10.0003 5.83464C10.4606 5.83464 10.8337 6.20774 10.8337 6.66797V9.16797H13.3337C13.7939 9.16797 14.167 9.54105 14.167 10.0013C14.167 10.4616 13.7939 10.8346 13.3337 10.8346H10.8337V13.3346C10.8337 13.7949 10.4606 14.168 10.0003 14.168C9.54008 14.168 9.16699 13.7949 9.16699 13.3346V10.8346H6.66699C6.20676 10.8346 5.83366 10.4616 5.83366 10.0013C5.83366 9.54105 6.20676 9.16797 6.66699 9.16797H9.16699V6.66797C9.16699 6.20774 9.54008 5.83464 10.0003 5.83464Z" fill="#1376FF"/>
</svg>
