<svg width="24" height="25" viewBox="0 0 24 25" fill="none" xmlns="http://www.w3.org/2000/svg">
<path d="M6.99902 17.8225V13.8225" stroke="white" stroke-width="1.5" stroke-linecap="round"/>
<path d="M12 17.8225V7.82251" stroke="white" stroke-width="1.5" stroke-linecap="round"/>
<path d="M17.001 17.8245V11.8245" stroke="white" stroke-width="1.5" stroke-linecap="round"/>
<path d="M2.49902 12.8225C2.49902 8.34417 2.49902 6.105 3.89026 4.71375C5.28151 3.32251 7.52068 3.32251 11.999 3.32251C16.4773 3.32251 18.7165 3.32251 20.1078 4.71375C21.499 6.105 21.499 8.34417 21.499 12.8225C21.499 17.3008 21.499 19.54 20.1078 20.9313C18.7165 22.3225 16.4773 22.3225 11.999 22.3225C7.52068 22.3225 5.28151 22.3225 3.89026 20.9313C2.49902 19.54 2.49902 17.3008 2.49902 12.8225Z" stroke="white" stroke-width="1.5" stroke-linejoin="round"/>
</svg>
