<svg width="24" height="24" viewBox="0 0 24 24" fill="none" xmlns="http://www.w3.org/2000/svg">
<path d="M15 9C11.686 9 9 11.686 9 15C9 18.314 11.686 21 15 21C18.314 21 21 18.314 21 15C21 11.686 18.314 9 15 9ZM17 15.75H15.75V17C15.75 17.414 15.414 17.75 15 17.75C14.586 17.75 14.25 17.414 14.25 17V15.75H13C12.586 15.75 12.25 15.414 12.25 15C12.25 14.586 12.586 14.25 13 14.25H14.25V13C14.25 12.586 14.586 12.25 15 12.25C15.414 12.25 15.75 12.586 15.75 13V14.25H17C17.414 14.25 17.75 14.586 17.75 15C17.75 15.414 17.414 15.75 17 15.75ZM7.75 3.25H6.25V3C6.25 2.59 6.59 2.25 7 2.25C7.41 2.25 7.75 2.59 7.75 3V3.25ZM7.5 15C7.5 16.8 8.14 18.45 9.2 19.75H5C3.48 19.75 2.25 18.52 2.25 17V9.75H9.65C8.32 11.1 7.5 12.95 7.5 15ZM11.76 8.25H2.25V6C2.25 4.48 3.48 3.25 5 3.25H6.25V5C6.25 5.41 6.59 5.75 7 5.75C7.41 5.75 7.75 5.41 7.75 5V3.25H14.25V5C14.25 5.41 14.59 5.75 15 5.75C15.41 5.75 15.75 5.41 15.75 5V3.25H16.88C18.4 3.25 19.63 4.48 19.63 6V8.25H18.25C17.27 7.77 16.17 7.5 15 7.5C13.84 7.5 12.74 7.76 11.76 8.25ZM15.75 3.25H14.25V3C14.25 2.59 14.59 2.25 15 2.25C15.41 2.25 15.75 2.59 15.75 3V3.25Z" fill="black"/>
</svg>
