<svg width="19" height="19" viewBox="0 0 19 19" fill="none" xmlns="http://www.w3.org/2000/svg">
<g clip-path="url(#clip0_3685_5334)">
<path fill-rule="evenodd" clip-rule="evenodd" d="M5.34375 1.58301V4.35384C5.34375 4.68159 5.60975 4.94759 5.9375 4.94759C6.26525 4.94759 6.53125 4.68159 6.53125 4.35384V1.58301C6.53125 1.25526 6.26525 0.989258 5.9375 0.989258C5.60975 0.989258 5.34375 1.25526 5.34375 1.58301Z" fill="black"/>
<path fill-rule="evenodd" clip-rule="evenodd" d="M12.4688 1.58301V4.35384C12.4688 4.68159 12.7348 4.94759 13.0625 4.94759C13.3903 4.94759 13.6562 4.68159 13.6562 4.35384V1.58301C13.6562 1.25526 13.3903 0.989258 13.0625 0.989258C12.7348 0.989258 12.4688 1.25526 12.4688 1.58301Z" fill="black"/>
<path fill-rule="evenodd" clip-rule="evenodd" d="M18.0101 11.1696V8.3125H0.989258V14.8438C0.989258 16.4833 2.31847 17.8125 3.95801 17.8125H10.8859C9.68413 16.9092 8.90592 15.4715 8.90592 13.8542C8.90592 11.1237 11.1234 8.90625 13.8538 8.90625C15.5955 8.90625 17.1282 9.80796 18.0101 11.1696ZM7.32259 2.375V4.35417C7.32259 5.11892 6.70192 5.73958 5.93717 5.73958C5.79942 5.73958 5.66642 5.71979 5.54134 5.68179V2.375H3.95801C2.31847 2.375 0.989258 3.70421 0.989258 5.34375V7.125H18.0101V5.34375C18.0101 3.70421 16.6809 2.375 15.0413 2.375H14.4476V4.35417C14.4476 5.11892 13.8269 5.73958 13.0622 5.73958C12.9244 5.73958 12.7914 5.71979 12.6663 5.68179V2.375H7.32259Z" fill="black"/>
<path fill-rule="evenodd" clip-rule="evenodd" d="M13.8535 9.69727C11.5593 9.69727 9.69727 11.5593 9.69727 13.8535C9.69727 16.1478 11.5593 18.0098 13.8535 18.0098C16.1478 18.0098 18.0098 16.1478 18.0098 13.8535C18.0098 11.5593 16.1478 9.69727 13.8535 9.69727ZM11.8506 14.0752L13.0381 15.2627C13.2701 15.4946 13.6453 15.4946 13.8773 15.2627L15.8564 13.2835C16.0884 13.0523 16.0884 12.6755 15.8564 12.4443C15.6253 12.2124 15.2484 12.2124 15.0173 12.4443L13.4577 14.0031L12.6898 13.236C12.4586 13.0041 12.0818 13.0041 11.8506 13.236C11.6186 13.4672 11.6186 13.844 11.8506 14.0752Z" fill="black"/>
</g>
<defs>
<clipPath id="clip0_3685_5334">
<rect width="19" height="19" fill="white"/>
</clipPath>
</defs>
</svg>
