<svg width="20" height="20" viewBox="0 0 20 20" fill="none" xmlns="http://www.w3.org/2000/svg">
<path d="M2.9165 7.80698C2.9165 4.91239 2.9165 3.46509 3.77078 2.56586C4.62505 1.66663 5.99998 1.66663 8.74984 1.66663H11.2498C13.9997 1.66663 15.3746 1.66663 16.2289 2.56586C17.0832 3.46509 17.0832 4.91239 17.0832 7.80698V12.1929C17.0832 15.0875 17.0832 16.5348 16.2289 17.4341C15.3746 18.3333 13.9997 18.3333 11.2498 18.3333H8.74984C5.99998 18.3333 4.62505 18.3333 3.77078 17.4341C2.9165 16.5348 2.9165 15.0875 2.9165 12.1929V7.80698Z" stroke="#B0B0B0" stroke-width="1.5" stroke-linecap="round" stroke-linejoin="round"/>
<path d="M11.25 9.16663H14.1667" stroke="#B0B0B0" stroke-width="1.5" stroke-linecap="round"/>
<path d="M5.83301 9.99992C5.83301 9.99992 6.24967 9.99992 6.66634 10.8333C6.66634 10.8333 7.98987 8.74992 9.16634 8.33325" stroke="#B0B0B0" stroke-width="1.5" stroke-linecap="round" stroke-linejoin="round"/>
<path d="M11.25 14.1666H14.1667" stroke="#B0B0B0" stroke-width="1.5" stroke-linecap="round"/>
<path d="M6.6665 1.66663L6.735 2.07762C6.90129 3.07533 6.98443 3.57418 7.33411 3.8704C7.68379 4.16663 8.18952 4.16663 9.20099 4.16663H10.7987C11.8101 4.16663 12.3159 4.16663 12.6656 3.8704C13.0152 3.57418 13.0984 3.07533 13.2647 2.07762L13.3332 1.66663" stroke="#B0B0B0" stroke-width="1.5" stroke-linecap="round" stroke-linejoin="round"/>
<path d="M6.6665 14.1666H7.49984" stroke="#B0B0B0" stroke-width="2" stroke-linecap="round" stroke-linejoin="round"/>
</svg>
