<svg width="24" height="25" viewBox="0 0 24 25" fill="none" xmlns="http://www.w3.org/2000/svg">
<path d="M4 18.8043V10.531C4 6.89765 4 5.08097 5.17157 3.95223C6.34315 2.82349 8.22876 2.82349 12 2.82349C15.7712 2.82349 17.6569 2.82349 18.8284 3.95223C20 5.08097 20 6.89765 20 10.531V18.8043C20 21.1102 20 22.2631 19.2272 22.6758C17.7305 23.4749 14.9232 20.8087 13.59 20.0059C12.8168 19.5403 12.4302 19.3075 12 19.3075C11.5698 19.3075 11.1832 19.5403 10.41 20.0059C9.0768 20.8087 6.26947 23.4749 4.77285 22.6758C4 22.2631 4 21.1102 4 18.8043Z" stroke="white" stroke-width="1.5" stroke-linecap="round" stroke-linejoin="round"/>
<path d="M4 7.82349H20" stroke="white" stroke-width="1.5"/>
</svg>
