<svg width="24" height="25" viewBox="0 0 24 25" fill="none" xmlns="http://www.w3.org/2000/svg">
<path d="M18 2.82446V4.82446M6 2.82446V4.82446" stroke="white" stroke-width="1.5" stroke-linecap="round" stroke-linejoin="round"/>
<path d="M11.9965 13.8225H12.0055M11.9965 17.8225H12.0055M15.992 13.8225H16.001M8.00098 13.8225H8.00995M8.00098 17.8225H8.00995" stroke="white" stroke-width="2" stroke-linecap="round" stroke-linejoin="round"/>
<path d="M3.50098 8.82446H20.501" stroke="white" stroke-width="1.5" stroke-linecap="round" stroke-linejoin="round"/>
<path d="M2.49902 13.0667C2.49902 8.70943 2.49902 6.53077 3.75114 5.17713C5.00326 3.82349 7.01851 3.82349 11.049 3.82349H12.949C16.9795 3.82349 18.9948 3.82349 20.2469 5.17713C21.499 6.53077 21.499 8.70943 21.499 13.0667V13.5803C21.499 17.9376 21.499 20.1162 20.2469 21.4699C18.9948 22.8235 16.9795 22.8235 12.949 22.8235H11.049C7.01851 22.8235 5.00326 22.8235 3.75114 21.4699C2.49902 20.1162 2.49902 17.9376 2.49902 13.5803V13.0667Z" stroke="white" stroke-width="1.5" stroke-linecap="round" stroke-linejoin="round"/>
<path d="M3 8.82446H21" stroke="white" stroke-width="1.5" stroke-linecap="round" stroke-linejoin="round"/>
</svg>
