<svg width="22" height="23" viewBox="0 0 22 23" fill="none" xmlns="http://www.w3.org/2000/svg">
<path d="M16 5.5C18.3456 5.5 19.0184 5.5 19.8263 6.11994C20.0343 6.27954 20.2205 6.46572 20.3801 6.67372C21 7.48164 21 8.65442 21 11V15.5C21 18.3284 21 19.7426 20.1213 20.6213C19.2426 21.5 17.8284 21.5 15 21.5H7C4.17157 21.5 2.75736 21.5 1.87868 20.6213C1 19.7426 1 18.3284 1 15.5V11C1 8.65442 1 7.48164 1.61994 6.67372C1.77954 6.46572 1.96572 6.27954 2.17372 6.11994C2.98164 5.5 3.65442 5.5 6 5.5" stroke="#1376FF" stroke-width="1.5" stroke-linecap="round"/>
<path d="M16 6.5L15.1142 4.28543C14.732 3.32996 14.3994 2.2461 13.4166 1.75955C12.8924 1.5 12.2616 1.5 11 1.5C9.7384 1.5 9.1076 1.5 8.58335 1.75955C7.6006 2.2461 7.26801 3.32996 6.88583 4.28543L6 6.5" stroke="#1376FF" stroke-width="1.5" stroke-linecap="round" stroke-linejoin="round"/>
<path d="M14.5 13.5C14.5 15.433 12.933 17 11 17C9.067 17 7.5 15.433 7.5 13.5C7.5 11.567 9.067 10 11 10C12.933 10 14.5 11.567 14.5 13.5Z" stroke="#1376FF" stroke-width="1.5"/>
<path d="M10.9998 5.5H11.0088" stroke="#1376FF" stroke-width="2" stroke-linecap="round" stroke-linejoin="round"/>
</svg>
