<svg width="20" height="20" viewBox="0 0 20 20" fill="none" xmlns="http://www.w3.org/2000/svg">
<g clip-path="url(#clip0_3685_5215)">
<path d="M16.6665 7.49996C16.0039 4.17875 12.9272 1.66663 9.23255 1.66663C5.05441 1.66663 1.6665 4.8793 1.6665 8.84166C1.6665 10.7454 2.44833 12.4753 3.72363 13.759C4.00441 14.0416 4.19188 14.4278 4.11622 14.8252C3.99136 15.475 3.70838 16.0812 3.29404 16.5864C4.38419 16.7874 5.51773 16.6064 6.48985 16.0939C6.83349 15.9128 7.00531 15.8222 7.12656 15.8038C7.21144 15.791 7.322 15.803 7.49984 15.8335" stroke="#B0B0B0" stroke-width="1.5" stroke-linecap="round" stroke-linejoin="round"/>
<path d="M9.1665 13.5514C9.1665 15.9728 11.2188 17.9361 13.7498 17.9361C14.0474 17.9365 14.3442 17.909 14.6365 17.8541C14.8469 17.8146 14.9521 17.7948 15.0256 17.806C15.099 17.8172 15.2031 17.8726 15.4113 17.9833C16.0002 18.2965 16.6869 18.4071 17.3472 18.2842C17.0962 17.9755 16.9248 17.6051 16.8492 17.208C16.8034 16.9651 16.9169 16.7291 17.087 16.5564C17.8596 15.7719 18.3332 14.7148 18.3332 13.5514C18.3332 11.1299 16.2809 9.16663 13.7498 9.16663C11.2188 9.16663 9.1665 11.1299 9.1665 13.5514Z" stroke="#B0B0B0" stroke-width="1.5" stroke-linejoin="round"/>
</g>
<defs>
<clipPath id="clip0_3685_5215">
<rect width="20" height="20" fill="white"/>
</clipPath>
</defs>
</svg>
