<svg width="24" height="24" viewBox="0 0 24 24" fill="none" xmlns="http://www.w3.org/2000/svg">
<path d="M20.5443 20.3525V5.28048C20.5443 3.45648 19.1044 2.01648 17.2804 2.01648H17.0883C17.0883 4.03248 15.4564 5.56848 13.5364 5.56848H10.3684C8.35235 5.56848 6.81635 3.93648 6.81635 2.01648H6.62435C4.80035 2.01648 3.36035 3.45648 3.36035 5.28048V20.4485C3.36035 22.2725 4.80035 23.7125 6.62435 23.7125H17.3764C19.1044 23.6165 20.5443 22.1765 20.5443 20.3525ZM11.8084 20.1605C8.73635 20.1605 6.33635 17.6645 6.33635 14.6885C6.33635 11.6165 8.83235 9.21648 11.8084 9.21648C14.8804 9.21648 17.2804 11.7125 17.2804 14.6885C17.2804 17.7605 14.7844 20.1605 11.8084 20.1605Z" fill="black"/>
<path d="M13.632 3.74447C14.592 3.74447 15.264 2.97647 15.264 2.11247C15.264 1.24847 14.496 0.480469 13.632 0.480469H10.464C9.50403 0.480469 8.83203 1.24847 8.83203 2.11247C8.83203 2.97647 9.60003 3.74447 10.464 3.74447H13.632Z" fill="black"/>
<path d="M13.8248 12.9608L10.8488 14.7848L10.1768 13.7288C9.88881 13.2488 9.31281 13.1528 8.83281 13.4408C8.35281 13.7288 8.25681 14.3048 8.54481 14.7848L9.50481 16.3208C9.88881 16.8968 10.7528 17.1848 11.3288 16.7048L14.6888 14.5928C15.1688 14.3048 15.2648 13.7288 14.9768 13.2488C14.8808 12.7688 14.3048 12.6728 13.8248 12.9608Z" fill="black"/>
</svg>
