<svg width="25" height="24" viewBox="0 0 25 24" fill="none" xmlns="http://www.w3.org/2000/svg">
<path d="M12.75 20H10.75C6.99142 20 5.11213 20 3.85746 19.0091C3.65678 18.8506 3.47119 18.676 3.3028 18.4871C2.25 17.3062 2.25 15.5375 2.25 12C2.25 8.46252 2.25 6.69377 3.3028 5.5129C3.47119 5.32403 3.65678 5.14935 3.85746 4.99087C5.11213 4 6.99142 4 10.75 4H13.75C17.5086 4 19.3879 4 20.6425 4.99087C20.8432 5.14935 21.0288 5.32403 21.1972 5.5129C22.0894 6.51358 22.2255 7.93642 22.2463 10.5" stroke="#1376FF" stroke-width="1.5" stroke-linecap="round" stroke-linejoin="round"/>
<path d="M18.75 20V13M15.25 16.5H22.25" stroke="#1376FF" stroke-width="1.5" stroke-linecap="round"/>
<path d="M2.25 9H22.25" stroke="#1376FF" stroke-width="1.5" stroke-linejoin="round"/>
</svg>
