<svg width="24" height="25" viewBox="0 0 24 25" fill="none" xmlns="http://www.w3.org/2000/svg">
<path d="M9 2.82349H3C2.44772 2.82349 2 3.27121 2 3.82349V9.82349C2 10.3758 2.44772 10.8235 3 10.8235H9C9.55229 10.8235 10 10.3758 10 9.82349V3.82349C10 3.27121 9.55229 2.82349 9 2.82349Z" stroke="white" stroke-width="1.5" stroke-linejoin="round"/>
<path d="M9 14.8235H3C2.44772 14.8235 2 15.2712 2 15.8235V21.8235C2 22.3758 2.44772 22.8235 3 22.8235H9C9.55229 22.8235 10 22.3758 10 21.8235V15.8235C10 15.2712 9.55229 14.8235 9 14.8235Z" stroke="white" stroke-width="1.5" stroke-linejoin="round"/>
<path d="M21 14.8235H15C14.4477 14.8235 14 15.2712 14 15.8235V21.8235C14 22.3758 14.4477 22.8235 15 22.8235H21C21.5523 22.8235 22 22.3758 22 21.8235V15.8235C22 15.2712 21.5523 14.8235 21 14.8235Z" stroke="white" stroke-width="1.5" stroke-linejoin="round"/>
<path d="M14.5 6.82349H21.5" stroke="white" stroke-width="1.5" stroke-linecap="round" stroke-linejoin="round"/>
</svg>
