<svg width="24" height="25" viewBox="0 0 24 25" fill="none" xmlns="http://www.w3.org/2000/svg">
<path d="M10.9961 10.8235H11.0111M10.9998 16.8235H11.0148" stroke="white" stroke-width="2" stroke-linecap="round" stroke-linejoin="round"/>
<path d="M7 13.8235L15 13.8235" stroke="white" stroke-width="1.5" stroke-linecap="round" stroke-linejoin="round"/>
<circle cx="1.5" cy="1.5" r="1.5" transform="matrix(1 0 0 -1 16 8.82349)" stroke="white" stroke-width="1.5" stroke-linecap="round" stroke-linejoin="round"/>
<path d="M2.77423 11.9674C1.77108 13.0878 1.7495 14.7781 2.67016 15.9672C4.49711 18.3267 6.49674 20.3264 8.85633 22.1533C10.0454 23.074 11.7357 23.0524 12.8561 22.0493C15.8979 19.3257 18.6835 16.4794 21.3719 13.3514C21.6377 13.0422 21.8039 12.6632 21.8412 12.2571C22.0062 10.4615 22.3452 5.28816 20.9403 3.88323C19.5353 2.4783 14.362 2.81725 12.5664 2.98225C12.1603 3.01956 11.7813 3.18582 11.472 3.4516C8.34412 6.13994 5.49781 8.92559 2.77423 11.9674Z" stroke="white" stroke-width="1.5"/>
</svg>
