<svg width="25" height="25" viewBox="0 0 25 25" fill="none" xmlns="http://www.w3.org/2000/svg">
<path d="M9.03345 14.1528L11 15.8722V7.00065C11 6.17186 11.6719 5.5 12.5006 5.5C13.3289 5.5 14.0006 6.17107 14.0013 6.99935L14.0045 11.763L16.6409 12.1903C18.3426 12.4492 19.1935 12.5786 19.7928 12.9427C20.7828 13.5441 21.5 14.5 21.5 15.7657C21.5 16.6841 21.2762 17.3002 20.732 18.9556C20.3867 20.0059 20.2141 20.5311 19.9326 20.9469C19.4691 21.6313 18.7853 22.1311 17.9984 22.3605C17.5204 22.4999 16.9745 22.4999 15.8826 22.4999H14.9571C13.5054 22.4999 12.7796 22.4999 12.1335 22.2298C12.0176 22.1814 11.9044 22.1267 11.7942 22.066C11.18 21.7278 10.7224 21.1566 9.80698 20.0142L6.8436 16.3158C6.38822 15.7474 6.38518 14.9341 6.8363 14.3622C7.37851 13.675 8.37444 13.58 9.03345 14.1528Z" stroke="white" stroke-width="1.5" stroke-linecap="round" stroke-linejoin="round"/>
<path d="M7.5 8.5H6.67647C5.17907 8.5 4.43037 8.5 3.96518 8.06066C3.5 7.62132 3.5 6.91421 3.5 5.5C3.5 4.08579 3.5 3.37868 3.96518 2.93934C4.43037 2.5 5.17907 2.5 6.67647 2.5H18.3235C19.8209 2.5 20.5696 2.5 21.0348 2.93934C21.5 3.37868 21.5 4.08579 21.5 5.5C21.5 6.91421 21.5 7.62132 21.0348 8.06066C20.5696 8.5 19.8209 8.5 18.3235 8.5H17.5" stroke="white" stroke-width="1.5" stroke-linecap="round" stroke-linejoin="round"/>
</svg>
