<svg width="25" height="22" viewBox="0 0 25 22" fill="none" xmlns="http://www.w3.org/2000/svg">
<path d="M12.7505 21.291C12.6547 21.2909 12.5602 21.2681 12.4748 21.2245C12.4103 21.1921 10.8737 20.4051 8.86627 18.9451C7.01376 17.5953 4.39777 15.3945 2.46863 12.5632C2.18596 12.1497 1.9313 11.7178 1.70637 11.2703C1.66006 11.1775 1.63821 11.0745 1.6429 10.971C1.64758 10.8675 1.67864 10.7669 1.73313 10.6787C1.78761 10.5905 1.86373 10.5176 1.95428 10.4671C2.04483 10.4166 2.1468 10.39 2.25049 10.39H6.16231L7.15364 8.97093C7.2134 8.88524 7.29423 8.8164 7.38833 8.77102C7.48243 8.72565 7.58664 8.70529 7.6909 8.71189C7.79515 8.71849 7.89596 8.75183 7.98358 8.80871C8.07121 8.86558 8.14271 8.94407 8.19119 9.03661L9.38079 11.3072L11.3821 7.02151C11.4358 6.90602 11.5243 6.81029 11.6353 6.74782C11.7463 6.68534 11.874 6.65928 12.0006 6.6733C12.1272 6.68732 12.2462 6.74071 12.3408 6.82595C12.4354 6.9112 12.5008 7.02398 12.5279 7.14842L13.7767 12.8329L15.538 9.06215C15.5859 8.95942 15.6616 8.87212 15.7565 8.81012C15.8514 8.74812 15.9618 8.71388 16.0751 8.71127C16.1885 8.70865 16.3003 8.73777 16.398 8.79533C16.4956 8.85289 16.5753 8.9366 16.6279 9.03702L17.9233 11.5103L18.523 10.6507C18.579 10.5705 18.6536 10.5049 18.7405 10.4597C18.8273 10.4144 18.9238 10.3908 19.0217 10.3908H22.867C24.0262 7.80768 23.6657 5.23549 21.8748 3.45311C19.8285 1.41571 16.4989 1.41571 14.4522 3.45311C14.1051 3.79856 13.6681 4.20766 13.2054 4.64109L13.1669 4.67677C13.0542 4.78224 12.9057 4.84091 12.7513 4.84091C12.597 4.84091 12.4484 4.78224 12.3357 4.67677L12.2952 4.63906C11.8326 4.20401 11.3963 3.79856 11.0496 3.4519C9.00332 1.4149 5.67333 1.4149 3.62701 3.4519C2.27279 4.79962 1.72138 6.62335 2.06925 8.58615C2.09757 8.74492 2.06166 8.90844 1.96943 9.04074C1.87721 9.17304 1.7362 9.26329 1.57744 9.29164C1.4988 9.30566 1.41816 9.30404 1.34014 9.28689C1.26212 9.26974 1.18824 9.23738 1.12273 9.19167C1.05722 9.14597 1.00135 9.0878 0.958321 9.02049C0.915291 8.95319 0.885943 8.87807 0.871951 8.79942C0.663142 7.62807 0.722744 6.49239 1.04873 5.42402C1.37765 4.35108 1.96877 3.37703 2.76866 2.5899C5.28855 0.0817676 9.38809 0.0817676 11.908 2.5899C12.1476 2.82871 12.4375 3.10402 12.7505 3.39838C13.0635 3.10402 13.3534 2.83074 13.5935 2.5899C16.1129 0.0817676 20.2129 0.0817676 22.7324 2.5899C23.815 3.65586 24.5065 5.05577 24.6952 6.56335C24.8861 8.08217 24.5735 9.70926 23.7947 11.2694C23.743 11.3729 23.6628 11.4595 23.5636 11.519C23.4645 11.5786 23.3504 11.6086 23.2347 11.6056H19.3395L18.3478 13.0247C18.2883 13.1106 18.2076 13.1798 18.1136 13.2256C18.0195 13.2713 17.9153 13.292 17.8109 13.2857C17.7065 13.2794 17.6055 13.2462 17.5177 13.1895C17.4299 13.1328 17.3581 13.0543 17.3094 12.9618L16.1198 10.6913L14.1185 14.9749C14.0646 15.0899 13.9761 15.1852 13.8653 15.2473C13.7545 15.3094 13.627 15.3353 13.5008 15.3213C13.3745 15.3073 13.2558 15.2541 13.1613 15.1692C13.0669 15.0844 13.0013 14.972 12.9739 14.848L11.7251 9.16352L9.96384 12.9342C9.91586 13.0369 9.84018 13.1241 9.74531 13.186C9.65044 13.2479 9.54017 13.2821 9.42691 13.2847C9.31365 13.2873 9.20191 13.2583 9.10429 13.2008C9.00667 13.1433 8.92704 13.0597 8.87438 12.9594L7.57896 10.4861L6.97848 11.3453C6.92245 11.4255 6.8479 11.491 6.76115 11.5362C6.6744 11.5815 6.57802 11.6051 6.48018 11.6052H3.29453C3.35251 11.6964 3.41252 11.7868 3.47375 11.8768C5.2995 14.556 7.79345 16.6567 9.56406 17.9489C10.5833 18.6951 11.6473 19.3781 12.7501 19.994C13.8615 19.3805 18.096 16.8939 21.1596 13.0534C21.2087 12.9891 21.2702 12.9352 21.3404 12.8949C21.4106 12.8546 21.4882 12.8287 21.5686 12.8188C21.6489 12.8089 21.7304 12.8151 21.8083 12.8371C21.8862 12.8591 21.959 12.8964 22.0223 12.9469C22.0856 12.9974 22.1381 13.06 22.1769 13.1311C22.2157 13.2021 22.2399 13.2802 22.2481 13.3607C22.2563 13.4413 22.2484 13.5227 22.2247 13.6001C22.2011 13.6775 22.1622 13.7494 22.1104 13.8116C20.1715 16.2444 17.8085 18.1269 16.1677 19.2796C14.3898 20.5284 13.0814 21.1986 13.0262 21.2258C12.9407 21.2689 12.8463 21.2913 12.7505 21.291Z" fill="#1376FF"/>
</svg>
