<svg width="20" height="20" viewBox="0 0 20 20" fill="none" xmlns="http://www.w3.org/2000/svg">
<path d="M4.09984 14.1666C4.09984 14.6637 4.50278 15.0666 4.99984 15.0666C5.49689 15.0666 5.89984 14.6637 5.89984 14.1666H4.99984H4.09984ZM17.6009 2.39886L18.2373 1.76246V1.76246L17.6009 2.39886ZM13.5017 15.8205L14.3795 15.6219V15.6219L13.5017 15.8205ZM1.81037 15.8205L0.932554 16.0191H0.932554L1.81037 15.8205ZM1.82856 14.4796L2.53097 15.0423L1.82856 14.4796ZM9.99984 1.66663V2.56663H13.3332V1.66663V0.766626H9.99984V1.66663ZM18.3332 6.66663H17.4332V15H18.3332H19.2332V6.66663H18.3332ZM4.99984 14.1666H5.89984V6.66663H4.99984H4.09984V14.1666H4.99984ZM9.99984 1.66663V0.766626C8.84677 0.766626 7.89143 0.764715 7.13673 0.866181C6.35615 0.971127 5.65688 1.20125 5.09567 1.76246L5.73207 2.39886L6.36847 3.03526C6.53949 2.86423 6.7956 2.72824 7.37658 2.65013C7.98346 2.56854 8.79588 2.56663 9.99984 2.56663V1.66663ZM4.99984 6.66663H5.89984C5.89984 5.46267 5.90175 4.65024 5.98334 4.04337C6.06145 3.46238 6.19744 3.20628 6.36847 3.03526L5.73207 2.39886L5.09567 1.76246C4.53447 2.32367 4.30434 3.02294 4.19939 3.80352C4.09793 4.55822 4.09984 5.51356 4.09984 6.66663H4.99984ZM13.3332 1.66663V2.56663C14.5371 2.56663 15.3496 2.56854 15.9564 2.65013C16.5374 2.72824 16.7935 2.86423 16.9645 3.03526L17.6009 2.39886L18.2373 1.76246C17.6761 1.20125 16.9769 0.971127 16.1963 0.866181C15.4416 0.764715 14.4862 0.766626 13.3332 0.766626V1.66663ZM18.3332 6.66663H19.2332C19.2332 5.51356 19.2351 4.55822 19.1336 3.80352C19.0287 3.02294 18.7985 2.32367 18.2373 1.76246L17.6009 2.39886L16.9645 3.03525C17.1356 3.20628 17.2716 3.46238 17.3497 4.04337C17.4313 4.65024 17.4332 5.46267 17.4332 6.66663H18.3332ZM18.3332 15H17.4332C17.4332 15.8376 17.2787 16.4687 17.0198 16.8633C16.7991 17.1997 16.4632 17.4333 15.8279 17.4333V18.3333V19.2333C17.0374 19.2333 17.9541 18.7207 18.5249 17.8506C19.0574 17.0389 19.2332 16.0033 19.2332 15H18.3332ZM15.8279 18.3333V17.4333C15.4829 17.4333 15.2186 17.2943 14.9815 17.0067C14.7233 16.6935 14.5135 16.2141 14.3795 15.6219L13.5017 15.8205L12.6239 16.0191C12.7929 16.7664 13.0911 17.5434 13.5926 18.1517C14.1152 18.7856 14.8625 19.2333 15.8279 19.2333V18.3333ZM4.13659 18.3333V17.4333C3.79164 17.4333 3.52733 17.2943 3.29017 17.0067C3.03197 16.6935 2.82216 16.2141 2.68818 15.6219L1.81037 15.8205L0.932554 16.0191C1.10163 16.7664 1.39976 17.5434 1.90133 18.1517C2.42393 18.7856 3.1712 19.2333 4.13659 19.2333V18.3333ZM4.13659 18.3333V19.2333H15.8279V18.3333V17.4333H4.13659V18.3333ZM3.3015 14.1666V15.0666H11.6524V14.1666V13.2666H3.3015V14.1666ZM1.81037 15.8205L2.68818 15.6219C2.64838 15.4459 2.61848 15.3132 2.59696 15.1991C2.57546 15.0851 2.56815 15.0187 2.56675 14.9788C2.56549 14.943 2.56997 14.9502 2.56149 14.979C2.55164 15.0125 2.5361 15.0359 2.53097 15.0423L1.82856 14.4796L1.12615 13.9169C0.840314 14.2737 0.75445 14.6615 0.767863 15.0421C0.778951 15.3568 0.862609 15.7099 0.932554 16.0191L1.81037 15.8205ZM3.3015 14.1666V13.2666C2.92544 13.2666 2.5316 13.2637 2.20573 13.318C1.83112 13.3803 1.4331 13.5338 1.12615 13.9169L1.82856 14.4796L2.53097 15.0423C2.51428 15.0631 2.48698 15.086 2.45924 15.1002C2.43893 15.1106 2.44341 15.1032 2.50128 15.0935C2.56124 15.0836 2.65071 15.0755 2.79094 15.0711C2.93071 15.0667 3.09366 15.0666 3.3015 15.0666V14.1666ZM13.5017 15.8205L14.3795 15.6219C14.2863 15.2099 14.2034 14.8392 14.1103 14.5529C14.022 14.281 13.874 13.9098 13.5426 13.6455L12.9814 14.349L12.4201 15.0526C12.3174 14.9707 12.3323 14.9056 12.3984 15.1089C12.4598 15.2979 12.5226 15.5717 12.6239 16.0191L13.5017 15.8205ZM11.6524 14.1666V15.0666C12.0396 15.0666 12.2574 15.0679 12.4099 15.0843C12.5532 15.0997 12.5014 15.1175 12.4201 15.0526L12.9814 14.349L13.5426 13.6455C13.2326 13.3982 12.8832 13.3248 12.6025 13.2946C12.3311 13.2654 11.9987 13.2666 11.6524 13.2666V14.1666Z" fill="#1376FF"/>
<path d="M8.75 5.83325H14.5833" stroke="#1376FF" stroke-width="1.8" stroke-linecap="round"/>
<path d="M8.75 9.16663H11.6667" stroke="#1376FF" stroke-width="1.8" stroke-linecap="round"/>
</svg>
