<svg width="20" height="20" viewBox="0 0 20 20" fill="none" xmlns="http://www.w3.org/2000/svg">
<g clip-path="url(#clip0_3685_5375)">
<path d="M15.833 0.833008H4.16634C3.96666 0.835307 3.77444 0.909238 3.62467 1.04134C4.21896 1.25043 4.74182 1.62364 5.13267 2.11773C5.52351 2.61182 5.76634 3.20656 5.83301 3.83301C5.84575 3.94375 5.84575 4.0556 5.83301 4.16634V18.333C5.83261 18.4924 5.87794 18.6486 5.96361 18.783C6.04927 18.9174 6.17169 19.0244 6.31634 19.0913C6.46133 19.1581 6.62244 19.1818 6.78051 19.1596C6.93858 19.1375 7.08696 19.0704 7.20801 18.9663L9.58301 16.933L11.958 18.9663C12.109 19.0954 12.301 19.1664 12.4997 19.1664C12.6983 19.1664 12.8904 19.0954 13.0413 18.9663L15.4163 16.933L17.7913 18.9663C17.9423 19.0954 18.1344 19.1664 18.333 19.1663C18.4536 19.1655 18.5727 19.14 18.683 19.0913C18.8277 19.0244 18.9501 18.9174 19.0357 18.783C19.1214 18.6486 19.1667 18.4924 19.1663 18.333V4.16634C19.1663 3.28229 18.8152 2.43444 18.19 1.80932C17.5649 1.1842 16.7171 0.833008 15.833 0.833008ZM14.9997 12.4997H9.99967C9.77866 12.4997 9.5667 12.4119 9.41042 12.2556C9.25414 12.0993 9.16634 11.8874 9.16634 11.6663C9.16634 11.4453 9.25414 11.2334 9.41042 11.0771C9.5667 10.9208 9.77866 10.833 9.99967 10.833H14.9997C15.2207 10.833 15.4327 10.9208 15.5889 11.0771C15.7452 11.2334 15.833 11.4453 15.833 11.6663C15.833 11.8874 15.7452 12.0993 15.5889 12.2556C15.4327 12.4119 15.2207 12.4997 14.9997 12.4997ZM14.9997 9.16634H9.99967C9.77866 9.16634 9.5667 9.07854 9.41042 8.92226C9.25414 8.76598 9.16634 8.55402 9.16634 8.33301C9.16634 8.11199 9.25414 7.90003 9.41042 7.74375C9.5667 7.58747 9.77866 7.49967 9.99967 7.49967H14.9997C15.2207 7.49967 15.4327 7.58747 15.5889 7.74375C15.7452 7.90003 15.833 8.11199 15.833 8.33301C15.833 8.55402 15.7452 8.76598 15.5889 8.92226C15.4327 9.07854 15.2207 9.16634 14.9997 9.16634ZM14.9997 5.83301H9.99967C9.77866 5.83301 9.5667 5.74521 9.41042 5.58893C9.25414 5.43265 9.16634 5.22069 9.16634 4.99967C9.16634 4.77866 9.25414 4.5667 9.41042 4.41042C9.5667 4.25414 9.77866 4.16634 9.99967 4.16634H14.9997C15.2207 4.16634 15.4327 4.25414 15.5889 4.41042C15.7452 4.5667 15.833 4.77866 15.833 4.99967C15.833 5.22069 15.7452 5.43265 15.5889 5.58893C15.4327 5.74521 15.2207 5.83301 14.9997 5.83301ZM4.16634 4.16634V10.833H1.66634C1.44533 10.833 1.23337 10.7452 1.07709 10.5889C0.920805 10.4326 0.833008 10.2207 0.833008 9.99967V4.16634C0.833008 4.04967 0.833008 3.94134 0.833008 3.83301C0.877211 3.39098 1.0952 2.98462 1.43901 2.70331C1.78283 2.42201 2.22431 2.28881 2.66634 2.33301C3.10837 2.37721 3.51473 2.5952 3.79604 2.93901C4.07734 3.28283 4.21054 3.72431 4.16634 4.16634Z" fill="black"/>
</g>
<defs>
<clipPath id="clip0_3685_5375">
<rect width="20" height="20" fill="white"/>
</clipPath>
</defs>
</svg>
