<svg width="21" height="21" viewBox="0 0 21 21" fill="none" xmlns="http://www.w3.org/2000/svg">
<g clip-path="url(#clip0_3685_5287)">
<path d="M20.8152 4.17212L14.4463 10.5L20.8152 16.8278C20.9303 16.5872 21.0001 16.3212 21.0001 16.0371V4.96286C21.0001 4.67874 20.9303 4.41276 20.8152 4.17212Z" fill="black"/>
<path d="M19.154 3.11719H1.84543C1.56131 3.11719 1.29533 3.18704 1.05469 3.30217L9.19477 11.4012C9.91451 12.121 11.0849 12.121 11.8047 11.4012L19.9448 3.30217C19.7041 3.18704 19.4381 3.11719 19.154 3.11719Z" fill="black"/>
<path d="M0.18498 4.17188C0.0698496 4.41251 0 4.6785 0 4.96262V16.0368C0 16.3209 0.0698496 16.587 0.18498 16.8276L6.55385 10.4997L0.18498 4.17188Z" fill="black"/>
<path d="M13.5759 11.3704L12.6747 12.2716C11.4754 13.4709 9.524 13.4709 8.32475 12.2716L7.42355 11.3704L1.05469 17.6982C1.29533 17.8133 1.56131 17.8832 1.84543 17.8832H19.154C19.4381 17.8832 19.7041 17.8133 19.9448 17.6982L13.5759 11.3704Z" fill="black"/>
</g>
<defs>
<clipPath id="clip0_3685_5287">
<rect width="21" height="21" fill="white"/>
</clipPath>
</defs>
</svg>
