<svg width="20" height="20" viewBox="0 0 20 20" fill="none" xmlns="http://www.w3.org/2000/svg">
<path d="M5.83301 7.08203L8.28469 8.53153C9.71401 9.37661 10.2853 9.37661 11.7147 8.53153L14.1663 7.08203" stroke="#1376FF" stroke-width="1.5" stroke-linecap="round" stroke-linejoin="round"/>
<path d="M1.68013 11.231C1.73461 13.7856 1.76185 15.0629 2.70445 16.0091C3.64706 16.9553 4.95894 16.9882 7.58269 17.0542C9.19975 17.0948 10.8009 17.0948 12.418 17.0542C15.0417 16.9882 16.3536 16.9553 17.2962 16.0091C18.2388 15.0629 18.2661 13.7856 18.3205 11.231C18.3381 10.4096 18.3381 9.59299 18.3205 8.77166C18.2661 6.21702 18.2388 4.93971 17.2962 3.99352C16.3536 3.04733 15.0417 3.01437 12.418 2.94844C10.8009 2.90781 9.19975 2.90781 7.58268 2.94844C4.95894 3.01435 3.64706 3.04731 2.70445 3.99351C1.76185 4.9397 1.7346 6.21701 1.68013 8.77158C1.66261 9.59299 1.66261 10.4096 1.68013 11.231Z" stroke="#1376FF" stroke-width="1.5" stroke-linejoin="round"/>
</svg>
