<svg width="24" height="25" viewBox="0 0 24 25" fill="none" xmlns="http://www.w3.org/2000/svg">
<path d="M22 10.3235V15.3235M5.5 2.82349H4C2.89543 2.82349 2 3.71892 2 4.82349V6.32349M18.5 2.82349H20C21.1046 2.82349 22 3.71892 22 4.82349V6.32349M18.5 22.8235H20C21.1046 22.8235 22 21.9281 22 20.8235V19.3235M9.5 2.82349H14.5M2 10.3235V11.8235M14.4999 22.8234H12.9999" stroke="#E6E6E6" stroke-width="1.5" stroke-linecap="round" stroke-linejoin="round"/>
<path d="M10 15.8235C10 15.2712 9.55228 14.8235 9 14.8235H3C2.44772 14.8235 2 15.2712 2 15.8235V21.8235C2 22.3758 2.44772 22.8235 3 22.8235H9C9.55228 22.8235 10 22.3758 10 21.8235V15.8235Z" stroke="#E6E6E6" stroke-width="1.5"/>
<path d="M10 14.8235L14.4425 10.381M11.475 9.82349H15V13.2834" stroke="#E6E6E6" stroke-width="1.5" stroke-linecap="round" stroke-linejoin="round"/>
</svg>
