<svg width="20" height="20" viewBox="0 0 20 20" fill="none" xmlns="http://www.w3.org/2000/svg">
<path fill-rule="evenodd" clip-rule="evenodd" d="M8.76375 1.70241C8.91333 1.89702 8.93516 2.16115 8.8195 2.37766C8.33289 3.28903 8.05676 4.33 8.05676 5.43732C8.05676 9.03053 10.9696 11.9434 14.5627 11.9434C15.6701 11.9434 16.7111 11.6672 17.6224 11.1806C17.8389 11.0649 18.1031 11.0868 18.2977 11.2364C18.4923 11.3859 18.5813 11.6355 18.5253 11.8745C17.6298 15.6957 14.2009 18.5416 10.1059 18.5416C5.33007 18.5416 1.4585 14.67 1.4585 9.89419C1.4585 5.79916 4.30437 2.37032 8.12558 1.47477C8.36458 1.41876 8.61416 1.50781 8.76375 1.70241Z" fill="#E6E6E6"/>
</svg>
