<svg width="24" height="25" viewBox="0 0 24 25" fill="none" xmlns="http://www.w3.org/2000/svg">
<path fill-rule="evenodd" clip-rule="evenodd" d="M3 12.8235C3 12.2712 3.44772 11.8235 4 11.8235H20C20.5523 11.8235 21 12.2712 21 12.8235C21 13.3758 20.5523 13.8235 20 13.8235H4C3.44772 13.8235 3 13.3758 3 12.8235Z" fill="#E6E6E6"/>
<path fill-rule="evenodd" clip-rule="evenodd" d="M8.20714 3.61638C8.59766 4.00691 8.59766 4.64007 8.20714 5.0306L6.41428 6.82345L19.9992 6.82321C20.5515 6.8232 20.9992 7.27091 20.9992 7.82319C20.9992 8.37548 20.5515 8.8232 19.9992 8.82321L4.00005 8.82349C3.59558 8.8235 3.23094 8.57986 3.07615 8.20618C2.92137 7.83251 3.00692 7.40238 3.29292 7.11638L6.79292 3.61638C7.18345 3.22586 7.81661 3.22586 8.20714 3.61638Z" fill="#E6E6E6"/>
<path fill-rule="evenodd" clip-rule="evenodd" d="M3.99998 16.8238L19.9992 16.8235C20.4037 16.8235 20.7683 17.0671 20.9231 17.4408C21.0779 17.8144 20.9924 18.2445 20.7064 18.5305L17.2072 22.0305C16.8167 22.4211 16.1835 22.4212 15.793 22.0307C15.4024 21.6402 15.4023 21.007 15.7928 20.6165L17.5854 18.8235L4.00002 18.8238C3.44773 18.8238 3.00001 18.3761 3 17.8238C2.99999 17.2715 3.4477 16.8238 3.99998 16.8238Z" fill="#E6E6E6"/>
</svg>
