<svg width="16" height="20" viewBox="0 0 16 20" fill="none" xmlns="http://www.w3.org/2000/svg">
<path d="M12.1663 1.66663V3.33329M7.99967 1.66663V3.33329M3.83301 1.66663V3.33329" stroke="#B0B0B0" stroke-width="1.5" stroke-linecap="round" stroke-linejoin="round"/>
<path d="M0.916504 8.33333C0.916504 5.58347 0.916504 4.20854 1.77078 3.35427C2.62505 2.5 3.99998 2.5 6.74984 2.5H9.24984C11.9997 2.5 13.3746 2.5 14.2289 3.35427C15.0832 4.20854 15.0832 5.58347 15.0832 8.33333V12.5C15.0832 15.2499 15.0832 16.6248 14.2289 17.4791C13.3746 18.3333 11.9997 18.3333 9.24984 18.3333H6.74984C3.99998 18.3333 2.62505 18.3333 1.77078 17.4791C0.916504 16.6248 0.916504 15.2499 0.916504 12.5V8.33333Z" stroke="#B0B0B0" stroke-width="1.5" stroke-linecap="round" stroke-linejoin="round"/>
<path d="M4.6665 12.4999H7.99984M4.6665 8.33325H11.3332" stroke="#B0B0B0" stroke-width="1.5" stroke-linecap="round"/>
</svg>
