<svg width="24" height="25" viewBox="0 0 24 25" fill="none" xmlns="http://www.w3.org/2000/svg">
<path d="M17 2.82349V4.82349M12 2.82349V4.82349M7 2.82349V4.82349" stroke="white" stroke-width="1.5" stroke-linecap="round" stroke-linejoin="round"/>
<path d="M3.5 16.8235V9.82349C3.5 6.99506 3.5 5.58085 4.37868 4.70217C5.25736 3.82349 6.67157 3.82349 9.5 3.82349H14.5C17.3284 3.82349 18.7426 3.82349 19.6213 4.70217C20.5 5.58085 20.5 6.99506 20.5 9.82349V12.8235C20.5 17.5375 20.5 19.8946 19.0355 21.359C17.5711 22.8235 15.214 22.8235 10.5 22.8235H9.5C6.67157 22.8235 5.25736 22.8235 4.37868 21.9448C3.5 21.0661 3.5 19.6519 3.5 16.8235Z" stroke="white" stroke-width="1.5"/>
<path d="M8 15.8235H12M8 10.8235H16" stroke="white" stroke-width="1.5" stroke-linecap="round"/>
<path d="M20.5 15.3235C20.5 16.7042 19.3807 17.8235 18 17.8235C17.5007 17.8235 16.912 17.736 16.4265 17.8661C15.9951 17.9817 15.6582 18.3186 15.5426 18.75C15.4125 19.2355 15.5 19.8241 15.5 20.3235C15.5 21.7042 14.3807 22.8235 13 22.8235" stroke="white" stroke-width="1.5" stroke-linecap="round" stroke-linejoin="round"/>
</svg>
