<svg width="24" height="25" viewBox="0 0 24 25" fill="none" xmlns="http://www.w3.org/2000/svg">
<path d="M2.52992 15.7696C2.31727 17.1636 3.268 18.1312 4.43205 18.6134C8.89481 20.4622 15.1052 20.4622 19.5679 18.6134C20.732 18.1312 21.6827 17.1636 21.4701 15.7696C21.3394 14.9129 20.6932 14.1995 20.2144 13.5029C19.5873 12.5793 19.525 11.5718 19.5249 10.5C19.5249 6.35786 16.1559 3 12 3C7.84413 3 4.47513 6.35786 4.47513 10.5C4.47503 11.5718 4.41272 12.5793 3.78561 13.5029C3.30684 14.1995 2.66061 14.9129 2.52992 15.7696Z" stroke="#E6E6E6" stroke-width="1.5" stroke-linecap="round" stroke-linejoin="round"/>
<path d="M8 20C8.45849 21.7252 10.0755 23 12 23C13.9245 23 15.5415 21.7252 16 20" stroke="#E6E6E6" stroke-width="1.5" stroke-linecap="round" stroke-linejoin="round"/>
<circle cx="19" cy="5" r="4.7" fill="#F76C69" stroke="white" stroke-width="0.6"/>
<path d="M18.0297 7.49703V6.88515L19.2297 5.63168C19.4673 5.38218 19.6495 5.18416 19.7762 5.03762C19.9069 4.88713 19.998 4.75842 20.0495 4.65149C20.101 4.54455 20.1267 4.43564 20.1267 4.32475C20.1267 4.13861 20.0673 3.99208 19.9485 3.88515C19.8337 3.77822 19.6851 3.72475 19.503 3.72475C19.3129 3.72475 19.1485 3.7802 19.0099 3.89109C18.8713 3.99802 18.7703 4.15644 18.7069 4.36634L18 4.14653C18.0475 3.91287 18.1446 3.71089 18.2911 3.54059C18.4376 3.36634 18.6158 3.23366 18.8257 3.14257C19.0396 3.04752 19.2653 3 19.503 3C19.7881 3 20.0376 3.05149 20.2515 3.15446C20.4693 3.25743 20.6376 3.40198 20.7564 3.58812C20.8792 3.77426 20.9406 3.99208 20.9406 4.24158C20.9406 4.4 20.9109 4.55644 20.8515 4.71089C20.7921 4.86535 20.703 5.02376 20.5842 5.18614C20.4653 5.34455 20.3109 5.52277 20.1208 5.72079L19.0812 6.81386H21V7.49703H18.0297Z" fill="white"/>
</svg>
