<svg width="21" height="21" viewBox="0 0 21 21" fill="none" xmlns="http://www.w3.org/2000/svg">
<path d="M6.62813 15.5C4.85887 15.5 3.97423 15.5 3.34442 15.1224C2.93278 14.8755 2.60116 14.5226 2.38713 14.1035C2.05966 13.4623 2.14769 12.6145 2.32374 10.9188C2.4707 9.50324 2.54418 8.79548 2.90553 8.27569C3.14278 7.93443 3.46366 7.65472 3.83981 7.4613C4.41274 7.16669 5.1512 7.16669 6.62813 7.16669H14.3715C15.8485 7.16669 16.5869 7.16669 17.1599 7.4613C17.536 7.65472 17.8569 7.93443 18.0941 8.27569C18.4555 8.79548 18.529 9.50324 18.6759 10.9188C18.852 12.6145 18.94 13.4623 18.6125 14.1035C18.3985 14.5226 18.0669 14.8755 17.6553 15.1224C17.0254 15.5 16.1408 15.5 14.3715 15.5" stroke="white" stroke-width="1.5"/>
<path d="M14.6663 7.16669V5.50002C14.6663 3.92867 14.6663 3.143 14.1782 2.65484C13.69 2.16669 12.9044 2.16669 11.333 2.16669H9.66634C8.09499 2.16669 7.30932 2.16669 6.82116 2.65484C6.33301 3.143 6.33301 3.92867 6.33301 5.50002V7.16669" stroke="white" stroke-width="1.5" stroke-linejoin="round"/>
<path d="M12.1569 13.8334L8.84244 13.8334C8.27136 13.8334 7.98582 13.8334 7.74287 13.9241C7.41893 14.045 7.14156 14.28 6.95484 14.5916C6.8148 14.8254 6.74555 15.1259 6.60704 15.727C6.39062 16.6663 6.28241 17.1359 6.356 17.5125C6.45413 18.0145 6.75998 18.4395 7.1851 18.6646C7.50395 18.8334 7.95011 18.8334 8.84244 18.8334L12.1569 18.8334C13.0492 18.8334 13.4954 18.8334 13.8142 18.6646C14.2394 18.4395 14.5452 18.0145 14.6433 17.5125C14.7169 17.1359 14.6087 16.6663 14.3923 15.727C14.2538 15.1259 14.1845 14.8254 14.0445 14.5916C13.8578 14.28 13.5804 14.045 13.2565 13.9241C13.0135 13.8334 12.728 13.8334 12.1569 13.8334Z" stroke="white" stroke-width="1.5" stroke-linejoin="round"/>
<path d="M15.5 10.5H15.5075" stroke="white" stroke-width="2" stroke-linecap="round" stroke-linejoin="round"/>
</svg>
