<svg width="25" height="24" viewBox="0 0 25 24" fill="none" xmlns="http://www.w3.org/2000/svg">
<path d="M17.25 18H21.25C21.8023 18 22.25 17.5523 22.25 17V11C22.25 9.34315 20.9069 8 19.25 8H5.25C3.59315 8 2.25 9.34315 2.25 11V17C2.25 17.5523 2.69772 18 3.25 18H7.25" stroke="#1376FF" stroke-width="1.5" stroke-linecap="round" stroke-linejoin="round"/>
<path d="M18.75 11.5H18.759" stroke="#1376FF" stroke-width="2" stroke-linecap="round" stroke-linejoin="round"/>
<path d="M17.25 8V3.5C17.25 2.67157 16.5784 2 15.75 2H8.75C7.92157 2 7.25 2.67157 7.25 3.5V8" stroke="#1376FF" stroke-width="1.5" stroke-linecap="round" stroke-linejoin="round"/>
<path d="M17.25 16V20C17.25 21.1046 16.3546 22 15.25 22H9.25C8.14543 22 7.25 21.1046 7.25 20V16H17.25Z" stroke="#1376FF" stroke-width="1.5" stroke-linecap="round" stroke-linejoin="round"/>
</svg>
