<svg width="24" height="25" viewBox="0 0 24 25" fill="none" xmlns="http://www.w3.org/2000/svg">
<path d="M3.50098 18.8235C3.50098 17.4093 3.50098 16.7022 3.94032 16.2628C4.37966 15.8235 5.08677 15.8235 6.50098 15.8235H7.00098C7.94379 15.8235 8.41519 15.8235 8.70809 16.1164C9.00098 16.4093 9.00098 16.8807 9.00098 17.8235V22.8235H3.50098V18.8235Z" stroke="white" stroke-width="1.5" stroke-linecap="round" stroke-linejoin="round"/>
<path d="M15 19.8245C15 18.8817 15 18.4103 15.2929 18.1174C15.5858 17.8245 16.0572 17.8245 17 17.8245H17.5C18.9142 17.8245 19.6213 17.8245 20.0607 18.2638C20.5 18.7032 20.5 19.4103 20.5 20.8245V22.8245H15V19.8245Z" stroke="white" stroke-width="1.5" stroke-linecap="round" stroke-linejoin="round"/>
<path d="M2.00098 22.8225H22.001" stroke="white" stroke-width="1.5" stroke-linecap="round" stroke-linejoin="round"/>
<path d="M9 16.8225C9 15.4083 9 14.7012 9.43934 14.2618C9.87868 13.8225 10.5858 13.8225 12 13.8225C13.4142 13.8225 14.1213 13.8225 14.5607 14.2618C15 14.7012 15 15.4083 15 16.8225V22.8225H9V16.8225Z" stroke="white" stroke-width="1.5" stroke-linecap="round" stroke-linejoin="round"/>
<path d="M12.6921 3.40214L13.396 4.82162C13.492 5.01922 13.7479 5.20875 13.9639 5.24504L15.2398 5.45877C16.0557 5.59588 16.2477 6.19271 15.6597 6.78147L14.6678 7.78156C14.4999 7.95093 14.4079 8.27757 14.4599 8.51146L14.7438 9.74947C14.9678 10.7294 14.4519 11.1085 13.592 10.5963L12.3961 9.88254C12.1801 9.75349 11.8242 9.75349 11.6042 9.88254L10.4083 10.5963C9.55238 11.1085 9.03244 10.7254 9.25641 9.74947L9.54038 8.51146C9.59238 8.27757 9.50039 7.95093 9.33241 7.78156L8.34052 6.78147C7.75658 6.19271 7.94456 5.59588 8.76047 5.45877L10.0363 5.24504C10.2483 5.20875 10.5043 5.01922 10.6003 4.82162L11.3042 3.40214C11.6882 2.63191 12.3121 2.63191 12.6921 3.40214Z" stroke="white" stroke-width="1.5" stroke-linecap="round" stroke-linejoin="round"/>
</svg>
