<svg width="20" height="20" viewBox="0 0 20 20" fill="none" xmlns="http://www.w3.org/2000/svg">
<path d="M2.91699 15.0001C2.91699 13.8216 2.91699 13.2324 3.28311 12.8662C3.64923 12.5001 4.23848 12.5001 5.41699 12.5001H5.83366C6.61933 12.5001 7.01217 12.5001 7.25625 12.7442C7.50033 12.9883 7.50033 13.3811 7.50033 14.1668V18.3335H2.91699V15.0001Z" stroke="#B0B0B0" stroke-width="1.5" stroke-linecap="round" stroke-linejoin="round"/>
<path d="M12.5 15.8334C12.5 15.0477 12.5 14.6549 12.7441 14.4108C12.9882 14.1667 13.381 14.1667 14.1667 14.1667H14.5833C15.7618 14.1667 16.3511 14.1667 16.7172 14.5329C17.0833 14.899 17.0833 15.4882 17.0833 16.6667V18.3334H12.5V15.8334Z" stroke="#B0B0B0" stroke-width="1.5" stroke-linecap="round" stroke-linejoin="round"/>
<path d="M1.66699 18.3334H18.3337" stroke="#B0B0B0" stroke-width="1.5" stroke-linecap="round" stroke-linejoin="round"/>
<path d="M7.5 13.3335C7.5 12.155 7.5 11.5657 7.86612 11.1996C8.23223 10.8335 8.82149 10.8335 10 10.8335C11.1785 10.8335 11.7678 10.8335 12.1339 11.1996C12.5 11.5657 12.5 12.155 12.5 13.3335V18.3335H7.5V13.3335Z" stroke="#B0B0B0" stroke-width="1.5" stroke-linecap="round" stroke-linejoin="round"/>
<path d="M10.5762 2.14814L11.1628 3.33104C11.2428 3.4957 11.4561 3.65365 11.6361 3.68389L12.6993 3.862C13.3792 3.97626 13.5392 4.47361 13.0493 4.96425L12.2227 5.79765C12.0827 5.93879 12.006 6.211 12.0494 6.4059L12.286 7.43758C12.4727 8.25418 12.0427 8.57007 11.3261 8.14329L10.3296 7.54848C10.1496 7.44094 9.85295 7.44094 9.66964 7.54848L8.67308 8.14329C7.95983 8.57007 7.52654 8.25082 7.71319 7.43758L7.94983 6.4059C7.99316 6.211 7.9165 5.93879 7.77651 5.79765L6.94994 4.96425C6.46333 4.47361 6.61997 3.97626 7.2999 3.862L8.36312 3.68389C8.53976 3.65365 8.75307 3.4957 8.83306 3.33104L9.41967 2.14814C9.73963 1.50628 10.2596 1.50628 10.5762 2.14814Z" stroke="#B0B0B0" stroke-width="1.5" stroke-linecap="round" stroke-linejoin="round"/>
</svg>
