<svg width="24" height="25" viewBox="0 0 24 25" fill="none" xmlns="http://www.w3.org/2000/svg">
<path d="M15.499 12.8235C15.499 14.7565 13.932 16.3235 11.999 16.3235C10.066 16.3235 8.49902 14.7565 8.49902 12.8235C8.49902 10.8905 10.066 9.32349 11.999 9.32349C13.932 9.32349 15.499 10.8905 15.499 12.8235Z" stroke="white" stroke-width="1.5"/>
<path d="M9.77175 3.50726L8.99967 5.82349L7.43983 6.81005L4.88763 6.17855C4.45976 6.07269 4.01304 6.25944 3.78783 6.63833L2.42363 8.93342C2.1778 9.34702 2.26134 9.87705 2.62248 10.195L4.41261 11.7709V13.8761L2.62304 15.452C2.26198 15.7699 2.17849 16.2999 2.4243 16.7134L3.78855 19.0086C4.01376 19.3875 4.46049 19.5743 4.88835 19.4684L7.44056 18.8369L8.91825 19.6656L9.62361 22.1016C9.74742 22.5292 10.139 22.8235 10.5842 22.8235H13.416C13.8611 22.8235 14.2527 22.5292 14.3765 22.1016L15.0819 19.6656L16.5588 18.8369L19.111 19.4684C19.5389 19.5743 19.9856 19.3875 20.2108 19.0086L21.6008 16.6701C21.8349 16.2763 21.7714 15.7737 21.4468 15.4505L19.6406 13.6522L19.6413 11.9948L21.4475 10.1965C21.7722 9.87323 21.8357 9.3707 21.6016 8.97688L20.2115 6.63833C19.9863 6.25944 19.5396 6.07269 19.1117 6.17855L16.5595 6.81005L14.9997 5.82349L14.2276 3.50726C14.0915 3.09892 13.7094 2.82349 13.2789 2.82349H10.7205C10.29 2.82349 9.90786 3.09892 9.77175 3.50726Z" stroke="white" stroke-width="1.5" stroke-linecap="round" stroke-linejoin="round"/>
</svg>
