<svg width="20" height="21" viewBox="0 0 20 21" fill="none" xmlns="http://www.w3.org/2000/svg">
<path d="M4.16699 8.00002C4.16699 5.25016 4.16699 3.87523 5.02126 3.02096C5.87554 2.16669 7.25047 2.16669 10.0003 2.16669C12.7502 2.16669 14.1251 2.16669 14.9794 3.02096C15.8337 3.87523 15.8337 5.25016 15.8337 8.00002V13C15.8337 15.7499 15.8337 17.1248 14.9794 17.9791C14.1251 18.8334 12.7502 18.8334 10.0003 18.8334C7.25047 18.8334 5.87554 18.8334 5.02126 17.9791C4.16699 17.1248 4.16699 15.7499 4.16699 13V8.00002Z" stroke="#E6E6E6" stroke-width="1.5" stroke-linecap="round"/>
<path d="M9.16699 16.3333H10.8337" stroke="#E6E6E6" stroke-width="1.5" stroke-linecap="round" stroke-linejoin="round"/>
<path d="M7.5 2.16669L7.57417 2.6117C7.7349 3.5761 7.81527 4.0583 8.14599 4.35172C8.49098 4.6578 8.98012 4.66669 10 4.66669C11.0199 4.66669 11.509 4.65781 11.854 4.35172C12.1847 4.0583 12.2651 3.57609 12.4258 2.6117L12.5 2.16669" stroke="#E6E6E6" stroke-width="1.5" stroke-linejoin="round"/>
</svg>
