<svg width="14" height="14" viewBox="0 0 14 14" fill="none" xmlns="http://www.w3.org/2000/svg">
<g clip-path="url(#clip0_3685_5190)">
<path d="M7.33626 0.469209C7.02553 0.159358 6.60155 -0.00995851 6.16281 0.000553395L1.67522 0.114933C0.822383 0.136207 0.13598 0.822484 0.114706 1.67545L0.000451525 6.16291C-0.00993525 6.60166 0.159256 7.02564 0.468982 7.33649L6.66375 13.531C7.28971 14.1556 8.30298 14.1556 8.92894 13.531L13.5308 8.92917C14.1564 8.30371 14.1564 7.28943 13.5308 6.66385L7.33626 0.469209ZM13.0778 8.47615L8.47593 13.0779C8.10038 13.4527 7.49231 13.4527 7.11676 13.0779L0.922121 6.88335C0.736285 6.69676 0.63467 6.44248 0.640927 6.17918L0.755181 1.69172C0.768071 1.18001 1.17979 0.768173 1.69149 0.755408L6.17895 0.641029C6.18708 0.640904 6.19497 0.640779 6.2031 0.640779C6.45802 0.641154 6.70242 0.742394 6.883 0.922348L13.0778 7.11699C13.4524 7.49254 13.4524 8.1006 13.0778 8.47615Z" fill="#B0B0B0"/>
<path d="M4.18703 2.64453C3.33519 2.64453 2.64466 3.33506 2.64453 4.1869C2.64453 5.03874 3.33519 5.72928 4.1869 5.72928C5.03874 5.72928 5.72928 5.03874 5.72928 4.1869C5.72827 3.33556 5.03837 2.64553 4.18703 2.64453ZM4.18703 5.08855C3.68896 5.08855 3.28538 4.68484 3.28526 4.1869C3.28526 3.68896 3.68896 3.28526 4.1869 3.28526C4.68484 3.28526 5.08855 3.68896 5.08855 4.1869C5.08805 4.68459 4.68472 5.08792 4.18703 5.08855Z" fill="#B0B0B0"/>
</g>
<defs>
<clipPath id="clip0_3685_5190">
<rect width="14" height="14" fill="white"/>
</clipPath>
</defs>
</svg>
