<svg width="24" height="25" viewBox="0 0 24 25" fill="none" xmlns="http://www.w3.org/2000/svg">
<path d="M5.18007 16.1199C3.92249 16.857 0.625213 18.3621 2.63348 20.2455C3.6145 21.1655 4.7071 21.8235 6.08077 21.8235H13.9192C15.2929 21.8235 16.3855 21.1655 17.3665 20.2455C19.3748 18.3621 16.0775 16.857 14.8199 16.1199C11.8709 14.3914 8.12906 14.3914 5.18007 16.1199Z" stroke="white" stroke-width="1.5" stroke-linecap="round" stroke-linejoin="round"/>
<path d="M14 7.82349C14 10.0326 12.2091 11.8235 10 11.8235C7.79086 11.8235 6 10.0326 6 7.82349C6 5.61435 7.79086 3.82349 10 3.82349C12.2091 3.82349 14 5.61435 14 7.82349Z" stroke="white" stroke-width="1.5"/>
<path d="M19.5 4.82349V9.82349M22 7.32349L17 7.32349" stroke="white" stroke-width="1.5" stroke-linecap="round" stroke-linejoin="round"/>
</svg>
