<svg width="24" height="25" viewBox="0 0 24 25" fill="none" xmlns="http://www.w3.org/2000/svg">
<path d="M20.774 18.8235C21.5233 18.8235 22.1193 18.352 22.6545 17.6926C23.7499 16.3429 21.9513 15.2643 21.2654 14.7361C20.568 14.1991 19.7894 13.8949 19 13.8235M18 11.8235C19.3807 11.8235 20.5 10.7042 20.5 9.32349C20.5 7.94277 19.3807 6.82349 18 6.82349" stroke="white" stroke-width="1.5" stroke-linecap="round"/>
<path d="M3.22596 18.8235C2.47666 18.8235 1.88067 18.352 1.34555 17.6926C0.250089 16.3429 2.04867 15.2643 2.73465 14.7361C3.43197 14.1991 4.21058 13.8949 5 13.8235M5.5 11.8235C4.11929 11.8235 3 10.7042 3 9.32349C3 7.94277 4.11929 6.82349 5.5 6.82349" stroke="white" stroke-width="1.5" stroke-linecap="round"/>
<path d="M8.0838 15.9347C7.06203 16.5665 4.38299 17.8566 6.0147 19.4709C6.81178 20.2595 7.69952 20.8235 8.81563 20.8235H15.1844C16.3005 20.8235 17.1882 20.2595 17.9853 19.4709C19.617 17.8566 16.938 16.5665 15.9162 15.9347C13.5201 14.4531 10.4799 14.4531 8.0838 15.9347Z" stroke="white" stroke-width="1.5" stroke-linecap="round" stroke-linejoin="round"/>
<path d="M15.5 8.32349C15.5 10.2565 13.933 11.8235 12 11.8235C10.067 11.8235 8.5 10.2565 8.5 8.32349C8.5 6.39049 10.067 4.82349 12 4.82349C13.933 4.82349 15.5 6.39049 15.5 8.32349Z" stroke="white" stroke-width="1.5"/>
</svg>
