<svg width="20" height="20" viewBox="0 0 20 20" fill="none" xmlns="http://www.w3.org/2000/svg">
<path d="M11.667 12.3443V7.65506C11.667 5.03406 11.667 3.72356 10.8959 3.39742C10.1248 3.07128 9.21725 3.99795 7.40226 5.85127C6.46232 6.81105 5.92604 7.02358 4.58869 7.02358C3.41914 7.02358 2.83436 7.02358 2.41429 7.31019C1.54229 7.90513 1.67409 9.06801 1.67409 9.99967C1.67409 10.9313 1.54229 12.0942 2.41429 12.6892C2.83436 12.9758 3.41914 12.9758 4.58869 12.9758C5.92604 12.9758 6.46232 13.1883 7.40226 14.1481C9.21725 16.0014 10.1248 16.9281 10.8959 16.6019C11.667 16.2758 11.667 14.9653 11.667 12.3443Z" stroke="white" stroke-width="1.5" stroke-linecap="round" stroke-linejoin="round"/>
<path d="M14.167 7.5C14.6882 8.18307 15.0003 9.05283 15.0003 10C15.0003 10.9472 14.6882 11.8169 14.167 12.5" stroke="white" stroke-width="1.5" stroke-linecap="round" stroke-linejoin="round"/>
<path d="M16.667 5.83301C17.7093 6.97145 18.3337 8.42109 18.3337 9.99967C18.3337 11.5783 17.7093 13.0279 16.667 14.1663" stroke="white" stroke-width="1.5" stroke-linecap="round" stroke-linejoin="round"/>
</svg>
