<svg width="25" height="24" viewBox="0 0 25 24" fill="none" xmlns="http://www.w3.org/2000/svg">
<path d="M17.75 4.5C17.75 5.32843 17.0784 6 16.25 6C15.4216 6 14.75 5.32843 14.75 4.5C14.75 3.67157 15.4216 3 16.25 3C17.0784 3 17.75 3.67157 17.75 4.5Z" stroke="#1376FF" stroke-width="1.5"/>
<path d="M15.75 21.0008L15.0859 18.3848C14.8661 17.5191 14.4115 16.7284 13.7707 16.0974L12.25 14.5998M12.25 14.5998C11.2422 13.8059 10.7383 13.409 10.5431 12.8784C10.4562 12.642 10.4146 12.3914 10.4207 12.1397C10.4343 11.5745 10.7832 11.0362 11.4809 9.95956L12.75 8.00136M12.25 14.5998L15.75 9.27743M6.75 11.1534C7.75 9.18366 9.28767 8.0423 12.75 8.00136M12.75 8.00136C12.9686 7.99877 13.2944 7.99799 13.6198 7.99805C14.1247 7.99813 14.3771 7.99818 14.5782 8.09214C14.7793 8.18609 14.9856 8.43256 15.3982 8.92548C15.5164 9.06672 15.6378 9.19326 15.75 9.27743M15.75 9.27743C16.9047 10.1433 18.7127 10.4921 20.75 8.19913" stroke="#1376FF" stroke-width="1.5" stroke-linecap="round" stroke-linejoin="round"/>
<path d="M4.75 17.7303L5.42822 17.8916C7.15663 18.3028 8.95324 17.5164 9.75 16" stroke="#1376FF" stroke-width="1.5" stroke-linecap="round" stroke-linejoin="round"/>
</svg>
